<?xml version="1.0" encoding="utf-8"?>
<!-- Generator: Adobe Illustrator 16.2.0, SVG Export Plug-In . SVG Version: 6.00 Build 0)  -->
<!DOCTYPE svg PUBLIC "-//W3C//DTD SVG 1.1//EN" "http://www.w3.org/Graphics/SVG/1.1/DTD/svg11.dtd">
<svg version="1.1" id="Layer_1" xmlns="http://www.w3.org/2000/svg" xmlns:xlink="http://www.w3.org/1999/xlink" x="0px" y="0px"
	 width="252.555px" height="62px" viewBox="0 0 252.555 62" enable-background="new 0 0 252.555 62" xml:space="preserve">
<g>
	<path fill="#FFFFFF" d="M3.74,32.662H0.205V0.425H3.74v15.898h21.162V0.425h3.533v32.237h-3.533V19.717H3.74V32.662z"/>
	<path fill="#FFFFFF" d="M65.754,0.002h-3.589l-14.987,32.66h3.724l3.893-8.385h18.332l3.893,8.385h3.724L65.754,0.002z
		 M56.588,20.408l7.368-15.884l7.38,15.884H56.588z"/>
	<path fill="#FFFFFF" d="M125.293,10.041c0,1.349-0.22,2.551-0.655,3.608c-0.442,1.049-1.046,1.972-1.817,2.752
		c-0.769,0.79-1.694,1.436-2.779,1.958c-1.085,0.522-2.255,0.892-3.511,1.109l9.896,13.151h-4.586l-9.333-12.542h-9.079v12.542
		h-3.535V0.377h13.762c1.982,0,3.746,0.292,5.302,0.872c1.554,0.583,2.837,1.375,3.845,2.382c0.783,0.788,1.394,1.721,1.836,2.803
		c0.435,1.085,0.655,2.254,0.655,3.509V10.041z M121.621,10.084c0-1.977-0.723-3.535-2.167-4.666
		c-1.445-1.128-3.476-1.692-6.083-1.692h-9.942v13.103h9.896c1.227,0,2.339-0.15,3.349-0.45c1-0.3,1.875-0.737,2.615-1.319
		c0.737-0.583,1.312-1.281,1.715-2.098c0.414-0.816,0.617-1.744,0.617-2.781V10.084z"/>
	<path fill="#FFFFFF" d="M176.474,16.592c0,2.262-0.416,4.374-1.247,6.339c-0.834,1.965-2.006,3.671-3.514,5.114
		c-1.503,1.445-3.316,2.585-5.425,3.417c-2.1,0.836-4.424,1.247-6.967,1.247h-11.08V0.52h11.08c2.542,0,4.867,0.411,6.967,1.228
		c2.109,0.814,3.922,1.936,5.425,3.369c1.508,1.428,2.68,3.124,3.514,5.086c0.832,1.967,1.247,4.079,1.247,6.339V16.592z
		 M151.777,29.361h7.544c2.042,0,3.888-0.317,5.534-0.962c1.653-0.645,3.057-1.54,4.22-2.689c1.165-1.146,2.056-2.487,2.689-4.028
		c0.626-1.542,0.938-3.205,0.938-4.995v-0.095c0-1.793-0.312-3.458-0.938-4.995c-0.633-1.542-1.525-2.883-2.689-4.031
		c-1.163-1.146-2.567-2.052-4.22-2.711c-1.646-0.66-3.492-0.989-5.534-0.989h-7.544V29.361z"/>
	<path fill="#FFFFFF" d="M203.18,32.619h-3.536V0.377h3.536V32.619z"/>
	<path fill="#FFFFFF" d="M252.555,32.708h-23.421V0.52h23.189V3.82h-19.656v10.979h17.626v3.347h-17.626v11.266h19.888V32.708z"/>
	<path fill="#FFFFFF" d="M62.12,0"/>
</g>
<g>
	<path fill="#FFFFFF" d="M38.121,51.572h3.489c0.338,0,0.672,0.039,1,0.119s0.621,0.21,0.877,0.391
		c0.258,0.184,0.466,0.416,0.625,0.703c0.162,0.286,0.242,0.631,0.242,1.037c0,0.505-0.143,0.923-0.43,1.252
		c-0.288,0.329-0.663,0.565-1.126,0.708v0.024c0.278,0.034,0.539,0.114,0.778,0.234c0.239,0.124,0.445,0.278,0.614,0.469
		c0.169,0.188,0.302,0.409,0.398,0.657c0.097,0.25,0.145,0.518,0.145,0.802c0,0.489-0.097,0.896-0.292,1.221
		c-0.193,0.324-0.447,0.585-0.764,0.783c-0.316,0.198-0.679,0.34-1.087,0.425c-0.408,0.084-0.824,0.126-1.245,0.126h-3.226V51.572z
		 M39.716,55.211h1.452c0.532,0,0.931-0.102,1.197-0.309c0.266-0.206,0.398-0.479,0.398-0.814c0-0.389-0.138-0.676-0.411-0.868
		c-0.276-0.188-0.716-0.283-1.322-0.283h-1.315V55.211z M39.716,59.157h1.467c0.201,0,0.418-0.012,0.65-0.039
		c0.232-0.024,0.444-0.084,0.638-0.176c0.193-0.092,0.355-0.225,0.48-0.399c0.125-0.171,0.191-0.406,0.191-0.701
		c0-0.473-0.155-0.803-0.462-0.986c-0.309-0.187-0.787-0.278-1.435-0.278h-1.53V59.157z"/>
	<path fill="#FFFFFF" d="M54.316,57.236c0,0.539-0.092,1.025-0.277,1.459c-0.186,0.435-0.438,0.803-0.759,1.107
		c-0.321,0.302-0.7,0.537-1.138,0.701c-0.437,0.165-0.913,0.247-1.428,0.247c-0.515,0-0.991-0.082-1.429-0.247
		c-0.439-0.164-0.821-0.399-1.145-0.701c-0.324-0.304-0.578-0.672-0.759-1.107c-0.181-0.435-0.271-0.92-0.271-1.459v-5.665h1.593
		v5.614c0,0.218,0.034,0.447,0.102,0.689c0.068,0.239,0.179,0.461,0.333,0.665c0.157,0.2,0.363,0.367,0.621,0.498
		c0.256,0.13,0.575,0.195,0.955,0.195c0.379,0,0.696-0.065,0.955-0.195c0.256-0.131,0.463-0.298,0.618-0.498
		c0.158-0.203,0.269-0.426,0.336-0.665c0.068-0.242,0.102-0.471,0.102-0.689v-5.614h1.592V57.236z"/>
	<path fill="#FFFFFF" d="M61.501,53.493c-0.169-0.244-0.394-0.423-0.677-0.539c-0.283-0.114-0.58-0.169-0.892-0.169
		c-0.187,0-0.365,0.022-0.537,0.063c-0.174,0.043-0.329,0.109-0.469,0.204c-0.138,0.092-0.251,0.212-0.334,0.36
		c-0.084,0.147-0.127,0.321-0.127,0.524c0,0.305,0.106,0.536,0.316,0.696c0.21,0.159,0.471,0.299,0.783,0.416
		c0.311,0.118,0.654,0.232,1.024,0.343c0.372,0.109,0.713,0.261,1.024,0.455c0.313,0.193,0.573,0.452,0.784,0.771
		c0.212,0.322,0.316,0.747,0.316,1.279c0,0.48-0.086,0.899-0.265,1.257c-0.177,0.36-0.414,0.657-0.713,0.891
		c-0.3,0.238-0.648,0.414-1.044,0.532c-0.396,0.119-0.815,0.177-1.252,0.177c-0.556,0-1.092-0.092-1.604-0.278
		c-0.515-0.186-0.957-0.497-1.33-0.935l1.201-1.163c0.193,0.295,0.45,0.525,0.766,0.689c0.317,0.165,0.65,0.247,1.005,0.247
		c0.184,0,0.37-0.026,0.556-0.077s0.355-0.125,0.505-0.228c0.152-0.101,0.275-0.229,0.367-0.384c0.092-0.157,0.14-0.336,0.14-0.539
		c0-0.329-0.106-0.583-0.316-0.758c-0.21-0.177-0.474-0.327-0.786-0.45c-0.312-0.121-0.652-0.236-1.022-0.345
		c-0.373-0.111-0.713-0.261-1.024-0.45c-0.313-0.191-0.576-0.442-0.785-0.759c-0.211-0.317-0.314-0.739-0.314-1.271
		c0-0.464,0.094-0.862,0.282-1.201c0.191-0.335,0.44-0.616,0.747-0.84c0.307-0.223,0.659-0.39,1.056-0.501
		c0.396-0.108,0.8-0.164,1.213-0.164c0.471,0,0.93,0.072,1.373,0.215c0.442,0.146,0.841,0.379,1.194,0.708L61.501,53.493z"/>
	<path fill="#FFFFFF" d="M65.167,51.572h1.592v8.951h-1.592V51.572z"/>
	<path fill="#FFFFFF" d="M69.553,51.572h2.112l4.338,6.65l0.024,0.024h-0.024l0.024-0.024v-6.65h1.595v8.951h-2.025l-4.425-6.866
		h-0.024v6.866h-1.595V51.572z"/>
	<path fill="#FFFFFF" d="M80.455,51.572h5.93v1.44h-4.335v2.199h4.108v1.443h-4.108v2.429h4.563v1.44h-6.157V51.572z"/>
	<path fill="#FFFFFF" d="M93.402,53.493c-0.169-0.244-0.394-0.423-0.677-0.539c-0.283-0.114-0.58-0.169-0.892-0.169
		c-0.186,0-0.364,0.022-0.536,0.063c-0.174,0.043-0.329,0.109-0.469,0.204c-0.138,0.092-0.251,0.212-0.333,0.36
		c-0.084,0.147-0.128,0.321-0.128,0.524c0,0.305,0.106,0.536,0.316,0.696c0.21,0.159,0.471,0.299,0.783,0.416
		c0.312,0.118,0.655,0.232,1.024,0.343c0.373,0.109,0.713,0.261,1.025,0.455c0.313,0.193,0.573,0.452,0.783,0.771
		c0.213,0.322,0.316,0.747,0.316,1.279c0,0.48-0.087,0.899-0.266,1.257c-0.177,0.36-0.413,0.657-0.713,0.891
		c-0.3,0.238-0.647,0.414-1.044,0.532c-0.396,0.119-0.814,0.177-1.252,0.177c-0.556,0-1.092-0.092-1.604-0.278
		c-0.515-0.186-0.958-0.497-1.33-0.935l1.201-1.163c0.194,0.295,0.449,0.525,0.766,0.689c0.317,0.165,0.65,0.247,1.006,0.247
		c0.183,0,0.37-0.026,0.556-0.077c0.186-0.051,0.355-0.125,0.505-0.228c0.152-0.101,0.275-0.229,0.367-0.384
		c0.092-0.157,0.14-0.336,0.14-0.539c0-0.329-0.106-0.583-0.316-0.758c-0.21-0.177-0.474-0.327-0.786-0.45
		c-0.312-0.121-0.653-0.236-1.022-0.345c-0.372-0.111-0.713-0.261-1.024-0.45c-0.312-0.191-0.575-0.442-0.786-0.759
		c-0.21-0.317-0.314-0.739-0.314-1.271c0-0.464,0.094-0.862,0.283-1.201c0.191-0.335,0.44-0.616,0.747-0.84
		c0.307-0.223,0.66-0.39,1.056-0.501c0.396-0.108,0.8-0.164,1.213-0.164c0.471,0,0.93,0.072,1.373,0.215
		c0.442,0.146,0.841,0.379,1.193,0.708L93.402,53.493z"/>
	<path fill="#FFFFFF" d="M101.493,53.493c-0.169-0.244-0.394-0.423-0.676-0.539c-0.283-0.114-0.58-0.169-0.892-0.169
		c-0.186,0-0.365,0.022-0.537,0.063c-0.174,0.043-0.329,0.109-0.469,0.204c-0.138,0.092-0.251,0.212-0.333,0.36
		c-0.085,0.147-0.128,0.321-0.128,0.524c0,0.305,0.106,0.536,0.317,0.696c0.21,0.159,0.471,0.299,0.783,0.416
		c0.312,0.118,0.655,0.232,1.025,0.343c0.372,0.109,0.712,0.261,1.025,0.455c0.311,0.193,0.572,0.452,0.783,0.771
		c0.212,0.322,0.316,0.747,0.316,1.279c0,0.48-0.087,0.899-0.266,1.257c-0.176,0.36-0.413,0.657-0.713,0.891
		c-0.299,0.238-0.647,0.414-1.044,0.532c-0.396,0.119-0.814,0.177-1.251,0.177c-0.556,0-1.093-0.092-1.605-0.278
		c-0.515-0.186-0.957-0.497-1.329-0.935l1.201-1.163c0.194,0.295,0.45,0.525,0.766,0.689c0.316,0.165,0.65,0.247,1.005,0.247
		c0.184,0,0.37-0.026,0.556-0.077s0.355-0.125,0.505-0.228c0.152-0.101,0.275-0.229,0.367-0.384
		c0.092-0.157,0.141-0.336,0.141-0.539c0-0.329-0.106-0.583-0.316-0.758c-0.21-0.177-0.474-0.327-0.786-0.45
		c-0.312-0.121-0.652-0.236-1.022-0.345c-0.373-0.111-0.713-0.261-1.025-0.45c-0.311-0.191-0.575-0.442-0.785-0.759
		s-0.314-0.739-0.314-1.271c0-0.464,0.094-0.862,0.283-1.201c0.191-0.335,0.439-0.616,0.747-0.84c0.307-0.223,0.66-0.39,1.056-0.501
		c0.396-0.108,0.8-0.164,1.213-0.164c0.471,0,0.931,0.072,1.373,0.215c0.442,0.146,0.841,0.379,1.194,0.708L101.493,53.493z"/>
	<path fill="#FFFFFF" d="M109.774,51.572h3.528c0.59,0,1.16,0.089,1.708,0.271c0.546,0.181,1.032,0.457,1.452,0.829
		c0.423,0.37,0.759,0.836,1.013,1.396c0.251,0.561,0.379,1.22,0.379,1.979c0,0.766-0.145,1.431-0.438,1.992
		c-0.29,0.561-0.664,1.024-1.123,1.389c-0.462,0.368-0.972,0.644-1.532,0.825c-0.561,0.181-1.109,0.271-1.648,0.271h-3.34V51.572z
		 M112.556,59.083c0.498,0,0.969-0.058,1.412-0.172c0.442-0.113,0.829-0.29,1.157-0.531c0.329-0.239,0.588-0.551,0.776-0.935
		c0.191-0.384,0.285-0.849,0.285-1.397c0-0.539-0.084-1.002-0.254-1.392c-0.167-0.387-0.401-0.701-0.701-0.942
		c-0.299-0.239-0.652-0.416-1.061-0.529c-0.411-0.113-0.858-0.172-1.349-0.172h-1.453v6.071H112.556z"/>
	<path fill="#FFFFFF" d="M120.204,51.572h5.931v1.44h-4.335v2.199h4.108v1.443h-4.108v2.429h4.563v1.44h-6.158V51.572z"/>
	<path fill="#FFFFFF" d="M127.729,51.572h1.834l2.44,6.764l2.516-6.764h1.721l-3.618,8.951h-1.377L127.729,51.572z"/>
	<path fill="#FFFFFF" d="M138.034,51.572h5.93v1.44h-4.335v2.199h4.108v1.443h-4.108v2.429h4.562v1.44h-6.157V51.572z"/>
	<path fill="#FFFFFF" d="M146.593,51.572h1.595v7.511h3.806v1.44h-5.401V51.572z"/>
	<path fill="#FFFFFF" d="M153.515,56.083c0-0.715,0.116-1.365,0.353-1.952c0.237-0.585,0.563-1.085,0.981-1.499
		c0.416-0.413,0.913-0.731,1.491-0.954c0.578-0.222,1.21-0.336,1.901-0.336c0.701-0.007,1.342,0.097,1.924,0.312
		c0.58,0.215,1.082,0.526,1.502,0.94c0.423,0.413,0.752,0.911,0.986,1.493c0.237,0.58,0.355,1.23,0.355,1.948
		c0,0.698-0.119,1.334-0.355,1.909c-0.234,0.573-0.563,1.066-0.986,1.479c-0.42,0.414-0.923,0.734-1.502,0.967
		c-0.583,0.232-1.223,0.353-1.924,0.36c-0.691,0-1.324-0.111-1.901-0.333c-0.578-0.225-1.075-0.542-1.491-0.949
		c-0.419-0.409-0.745-0.899-0.981-1.472C153.63,57.42,153.515,56.784,153.515,56.083z M155.182,55.984
		c0,0.478,0.075,0.924,0.222,1.327c0.148,0.403,0.355,0.754,0.626,1.049c0.268,0.295,0.592,0.527,0.966,0.696
		c0.375,0.169,0.795,0.253,1.259,0.253c0.461,0,0.885-0.084,1.264-0.253c0.379-0.169,0.703-0.401,0.974-0.696
		c0.269-0.295,0.479-0.646,0.626-1.049c0.147-0.403,0.22-0.849,0.22-1.327c0-0.447-0.072-0.865-0.22-1.251
		c-0.147-0.389-0.357-0.728-0.626-1.02c-0.271-0.29-0.595-0.517-0.974-0.681c-0.379-0.165-0.803-0.247-1.264-0.247
		c-0.464,0-0.884,0.083-1.259,0.247c-0.375,0.164-0.698,0.391-0.966,0.681c-0.271,0.292-0.479,0.631-0.626,1.02
		C155.256,55.12,155.182,55.538,155.182,55.984z"/>
	<path fill="#FFFFFF" d="M165.358,51.572h3.011c0.431,0,0.844,0.041,1.245,0.126c0.401,0.084,0.751,0.225,1.056,0.422
		c0.302,0.198,0.546,0.464,0.728,0.798c0.181,0.333,0.271,0.747,0.271,1.244c0,0.566-0.097,1.02-0.29,1.366
		s-0.455,0.614-0.783,0.805c-0.332,0.188-0.711,0.317-1.146,0.384c-0.435,0.067-0.887,0.102-1.358,0.102h-1.138v3.705h-1.595V51.572
		z M167.912,55.453c0.227,0,0.464-0.01,0.708-0.027c0.244-0.017,0.471-0.065,0.677-0.149c0.208-0.085,0.375-0.213,0.505-0.38
		c0.133-0.169,0.198-0.406,0.198-0.708c0-0.278-0.061-0.5-0.179-0.665c-0.118-0.164-0.268-0.29-0.454-0.379
		c-0.187-0.089-0.392-0.145-0.619-0.171c-0.229-0.024-0.447-0.037-0.657-0.037h-1.138v2.516H167.912z"/>
	<path fill="#FFFFFF" d="M173.956,51.572h2.428l2.391,6.271l2.414-6.271h2.402v8.951h-1.518v-7.436h-0.024l-2.719,7.436h-1.114
		l-2.719-7.436h-0.024v7.436h-1.517V51.572z"/>
	<path fill="#FFFFFF" d="M186.462,51.572h5.93v1.44h-4.335v2.199h4.108v1.443h-4.108v2.429h4.563v1.44h-6.157V51.572z"/>
	<path fill="#FFFFFF" d="M195.021,51.572h2.113l4.337,6.65l0.024,0.024h-0.024l0.024-0.024v-6.65h1.595v8.951h-2.025l-4.425-6.866
		h-0.024v6.866h-1.595V51.572z"/>
	<path fill="#FFFFFF" d="M207.754,53.012h-2.743v-1.44h7.081v1.44h-2.745v7.511h-1.593V53.012z"/>
</g>
</svg>
